HIERARCHY
ROOT Hips
{
	OFFSET 0.000000 0.000000 0.000000
	CHANNELS 6 Xposition Yposition Zposition Zrotation Yrotation Xrotation 
	JOINT LHipJoint
	{
		OFFSET 0.000000 0.000000 0.000000
		CHANNELS 3 Zrotation Yrotation Xrotation
		JOINT LeftUpLeg
		{
			OFFSET 1.363060 -1.794630 0.839290
			CHANNELS 3 Zrotation Yrotation Xrotation
			JOINT LeftLeg
			{
				OFFSET 2.448110 -6.726130 0.000000
				CHANNELS 3 Zrotation Yrotation Xrotation
				JOINT LeftFoot
				{
					OFFSET 2.562200 -7.039590 0.000000
					CHANNELS 3 Zrotation Yrotation Xrotation
					JOINT LeftToeBase
					{
						OFFSET 0.157640 -0.433110 2.322550
						CHANNELS 3 Zrotation Yrotation Xrotation
						End Site
						{
							OFFSET 0.000000 0.000000 0.000000
						}
					}
				}
			}
		}
	}
	JOINT RHipJoint
	{
		OFFSET 0.000000 0.000000 0.000000
		CHANNELS 3 Zrotation Yrotation Xrotation
		JOINT RightUpLeg
		{
			OFFSET -1.305520 -1.794630 0.839290
			CHANNELS 3 Zrotation Yrotation Xrotation
			JOINT RightLeg
			{
				OFFSET -2.542530 -6.985550 0.000000
				CHANNELS 3 Zrotation Yrotation Xrotation
				JOINT RightFoot
				{
					OFFSET -2.568260 -7.056230 0.000000
					CHANNELS 3 Zrotation Yrotation Xrotation
					JOINT RightToeBase
					{
						OFFSET -0.164730 -0.452590 2.363150
						CHANNELS 3 Zrotation Yrotation Xrotation
						End Site
						{
							OFFSET 0.000000 0.000000 0.000000
						}
					}
				}
			}
		}
	}
	JOINT LowerBack
	{
		OFFSET 0.000000 0.000000 0.000000
		CHANNELS 3 Zrotation Yrotation Xrotation
		JOINT Spine
		{
			OFFSET 0.028270 2.035590 -0.193380
			CHANNELS 3 Zrotation Yrotation Xrotation
			JOINT Spine1
			{
				OFFSET 0.056720 2.048850 -0.042750
				CHANNELS 3 Zrotation Yrotation Xrotation
				JOINT Neck
				{
					OFFSET 0.000000 0.000000 0.000000
					CHANNELS 3 Zrotation Yrotation Xrotation
					JOINT Neck1
					{
						OFFSET -0.054170 1.746240 0.172020
						CHANNELS 3 Zrotation Yrotation Xrotation
						JOINT Head
						{
							OFFSET 0.104070 1.761360 -0.123970
							CHANNELS 3 Zrotation Yrotation Xrotation
							End Site
							{
								OFFSET 0.000000 0.000000 0.000000
							}
						}
					}
				}
				JOINT LeftShoulder
				{
					OFFSET 0.000000 0.000000 0.000000
					CHANNELS 3 Zrotation Yrotation Xrotation
					JOINT LeftArm
					{
						OFFSET 3.362410 1.200890 -0.311210
						CHANNELS 3 Zrotation Yrotation Xrotation
						JOINT LeftForeArm
						{
							OFFSET 4.983000 -0.000000 -0.000000
							CHANNELS 3 Zrotation Yrotation Xrotation
							JOINT LeftHand
							{
								OFFSET 3.483560 -0.000000 -0.000000
								CHANNELS 3 Zrotation Yrotation Xrotation
								JOINT LeftFingerBase
								{
									OFFSET 0.000000 0.000000 0.000000
									CHANNELS 3 Zrotation Yrotation Xrotation
									JOINT LeftHandIndex1
									{
										OFFSET 0.715260 -0.000000 -0.000000
										CHANNELS 3 Zrotation Yrotation Xrotation
										End Site
										{
											OFFSET 0.000000 0.000000 0.000000
										}
									}
								}
								JOINT LThumb
								{
									OFFSET 0.000000 0.000000 0.000000
									CHANNELS 3 Zrotation Yrotation Xrotation
									End Site
									{
										OFFSET 0.000000 0.000000 0.000000
									}
								}
							}
						}
					}
				}
				JOINT RightShoulder
				{
					OFFSET 0.000000 0.000000 0.000000
					CHANNELS 3 Zrotation Yrotation Xrotation
					JOINT RightArm
					{
						OFFSET -3.136600 1.374050 -0.404650
						CHANNELS 3 Zrotation Yrotation Xrotation
						JOINT RightForeArm
						{
							OFFSET -5.241900 -0.000000 -0.000000
							CHANNELS 3 Zrotation Yrotation Xrotation
							JOINT RightHand
							{
								OFFSET -3.444170 -0.000000 -0.000000
								CHANNELS 3 Zrotation Yrotation Xrotation
								JOINT RightFingerBase
								{
									OFFSET 0.000000 0.000000 0.000000
									CHANNELS 3 Zrotation Yrotation Xrotation
									JOINT RightHandIndex1
									{
										OFFSET -0.622530 -0.000000 -0.000000
										CHANNELS 3 Zrotation Yrotation Xrotation
										End Site
										{
											OFFSET 0.000000 0.000000 0.000000
										}
									}
								}
								JOINT RThumb
								{
									OFFSET 0.000000 0.000000 0.000000
									CHANNELS 3 Zrotation Yrotation Xrotation
									End Site
									{
										OFFSET 0.000000 0.000000 0.000000
									}
								}
							}
						}
					}
				}
			}
		}
	}
}
MOTION
Frames: 12
Frame Time: 0.008333
15.652788 17.873673 -10.974446 1.779418 -50.968424 3.209477 -3.924724 1.177474 2.542280 -16.588613 -7.605450 -9.875811 0.228967 8.239238 24.641342 0.131690 1.134737 -7.892461 0.007200 -0.546700 -1.502200 0.972116 -1.137553 1.203938 20.894861 5.189554 -12.280481 -2.662692 -10.648416 32.388218 -0.240494 -1.936487 -10.433935 -0.000100 0.058400 -0.160400 0.195334 -0.238941 4.362826 1.903268 -0.290486 0.156553 0.870597 -0.190130 -3.375054 -9.353890 -3.049914 -17.323782 4.758819 -2.523808 16.194486 3.499800 -1.703100 12.358200 -6.172156 -0.919554 -1.737159 -81.845808 5.046441 25.637949 16.999882 -24.361084 -4.528196 -1.008724 -2.325619 5.042651 16.590504 21.149171 7.142500 -7.125000 0.000000 0.000000 -12.428900 54.105500 -2.814900 5.232957 1.208772 -1.222464 78.262376 -3.178455 23.402700 -16.732697 24.847363 -3.985210 0.405829 -0.220483 6.415193 -16.100536 10.137005 -3.036000 7.125000 0.000000 0.000000 7.441300 -19.298100 4.602700 
15.653792 17.871465 -10.969327 1.691329 -50.668935 3.213650 -3.921729 1.187307 2.538814 -16.527033 -7.834331 -9.769474 0.239289 8.256992 24.698482 0.145920 1.053342 -7.889310 0.006000 -0.501500 -1.378000 0.973515 -1.141574 1.210268 20.980788 4.971049 -12.242978 -2.656183 -10.637860 32.355492 -0.216343 -2.034835 -10.406633 -0.000100 0.075500 -0.207500 0.337437 -0.363504 4.447623 1.929019 -0.444787 0.162161 0.842945 -0.267017 -3.400248 -9.262362 -3.042923 -17.312216 4.616569 -2.532157 16.142782 3.419900 -1.713400 12.329500 -6.171502 -0.923230 -1.736928 -81.886181 5.134631 25.777104 16.958860 -24.308287 -4.505370 -1.043448 -2.320281 4.931623 17.032176 21.098111 7.334400 -7.125000 0.000000 0.000000 -11.917200 54.139700 -2.706400 5.233767 1.194016 -1.228204 78.171828 -3.364458 23.608524 -16.785956 24.923179 -4.011877 0.403547 -0.219268 6.237824 -16.010577 10.189944 -3.033500 7.125000 0.000000 0.000000 7.506600 -19.248800 4.652100 
15.651684 17.872369 -10.966818 1.673738 -50.606468 3.215430 -3.922209 1.189573 2.544014 -16.501942 -7.821257 -9.737158 0.232077 8.238687 24.646406 0.154727 0.974265 -7.791604 0.006500 -0.520500 -1.430200 0.971097 -1.143484 1.209390 21.007619 4.961420 -12.244624 -2.664651 -10.650628 32.397284 -0.213368 -2.044616 -10.395289 -0.000100 0.078400 -0.215300 0.341240 -0.392058 4.496121 1.954595 -0.483523 0.159715 0.886500 -0.284642 -3.431139 -9.179382 -3.054333 -17.326875 4.453771 -2.560376 16.125850 3.329600 -1.736600 12.323200 -6.167928 -0.928770 -1.736882 -81.936909 5.224296 25.888947 16.930076 -24.270686 -4.494658 -1.006436 -2.321994 4.905894 16.588522 21.027410 7.107100 -7.125000 0.000000 0.000000 -12.370100 53.978700 -2.762700 5.236959 1.177325 -1.236153 78.078550 -3.563904 23.756563 -16.850111 25.010510 -4.042688 0.402423 -0.216159 6.080616 -15.950704 10.185478 -3.019600 7.125000 0.000000 0.000000 7.550400 -19.259100 4.678000 
15.645461 17.872770 -10.965112 1.850880 -50.776691 3.051390 -3.927865 1.190084 2.548641 -16.632361 -7.761999 -9.674248 0.227970 8.230973 24.626857 0.141724 1.060811 -7.849493 0.006700 -0.527200 -1.448500 0.966991 -1.145878 1.207531 20.875419 5.037378 -12.182556 -2.672722 -10.661794 32.431596 -0.243134 -1.910502 -10.378088 -0.000100 -0.061200 0.168300 0.145832 -0.322384 4.515116 1.952523 -0.406433 0.182057 0.985294 -0.243787 -3.413581 -9.185365 -3.075789 -17.266940 4.432036 -2.588793 16.072046 3.314100 -1.750700 12.287300 -6.170125 -0.923583 -1.735861 -81.986561 5.297885 25.959881 16.906597 -24.240719 -4.486519 -0.943618 -2.351882 4.990224 15.773096 21.303596 6.809900 -7.125000 0.000000 0.000000 -13.398500 54.115200 -3.043600 5.243738 1.170834 -1.235426 78.097656 -3.599311 23.505372 -16.789877 24.925869 -4.012810 0.403470 -0.213325 6.176398 -15.966279 10.059642 -2.985500 7.125000 0.000000 0.000000 7.540000 -19.391500 4.649000 
15.639540 17.872168 -10.963305 2.057786 -50.895930 2.883305 -3.933355 1.189162 2.552503 -16.780754 -7.688068 -9.632745 0.218905 8.214077 24.579316 0.125124 1.155361 -7.871842 0.005800 -0.493700 -1.356500 0.965062 -1.146552 1.205365 20.726079 5.145559 -12.147359 -2.684023 -10.679496 32.485910 -0.263831 -1.831218 -10.416283 -0.001800 -0.270900 0.744200 -0.028343 -0.265178 4.506954 1.928513 -0.343838 0.200640 1.031622 -0.210243 -3.384357 -9.177344 -3.112965 -17.241182 4.444868 -2.644151 16.030585 3.307700 -1.770400 12.268000 -6.169910 -0.913049 -1.737034 -81.986410 5.415436 26.070841 16.909052 -24.251386 -4.491067 -0.926871 -2.362664 5.060257 15.550347 21.426371 6.740300 -7.125000 0.000000 0.000000 -13.705600 54.201900 -3.144600 5.243112 1.165401 -1.236000 78.141316 -3.706947 23.293294 -16.795767 24.934991 -4.015951 0.399839 -0.209481 6.188358 -15.845966 9.978452 -2.937500 7.125000 0.000000 0.000000 7.629100 -19.485800 4.688700 
15.635023 17.872068 -10.963606 2.161535 -50.951198 2.841289 -3.933389 1.185280 2.551005 -16.858430 -7.632345 -9.658276 0.212430 8.199737 24.538430 0.095054 1.257059 -7.678119 0.009200 -0.618800 -1.700500 0.966482 -1.145364 1.204508 20.661394 5.245081 -12.171866 -2.692316 -10.693647 32.529815 -0.271180 -1.818346 -10.483743 -0.003200 -0.363600 0.999000 -0.083927 -0.222156 4.479614 1.885544 -0.290805 0.197563 0.975966 -0.181284 -3.376339 -9.065737 -3.123267 -17.280340 4.409574 -2.693904 16.076175 3.265600 -1.785300 12.297500 -6.165631 -0.910376 -1.738933 -81.903583 5.518570 26.200829 16.936112 -24.297413 -4.509447 -0.915704 -2.364057 4.938779 15.488342 21.403409 6.704600 -7.125000 0.000000 0.000000 -13.762900 54.165600 -3.145800 5.240266 1.156904 -1.240510 78.256244 -3.820148 23.152153 -16.771514 24.903843 -4.004200 0.402442 -0.214840 6.067708 -15.917063 10.132800 -2.997600 7.125000 0.000000 0.000000 7.574800 -19.316700 4.683600 
15.630406 17.871967 -10.966818 2.389495 -51.009060 2.692272 -3.936087 1.181099 2.546098 -17.010602 -7.611035 -9.667337 0.210376 8.193962 24.524065 0.071940 1.332459 -7.526902 0.010500 -0.660700 -1.815700 0.967777 -1.144167 1.203430 20.529308 5.380795 -12.156061 -2.694539 -10.700367 32.548011 -0.251746 -1.915009 -10.523811 -0.004000 -0.408900 1.123600 -0.264225 -0.211518 4.470299 1.850406 -0.288765 0.216401 0.987525 -0.178847 -3.333502 -9.035614 -3.135176 -17.393207 4.464119 -2.717735 16.172753 3.277900 -1.786100 12.366900 -6.159259 -0.898347 -1.740026 -81.961797 5.573794 25.978842 16.952027 -24.321066 -4.515766 -0.937123 -2.353567 5.054503 15.723343 21.330639 6.792400 -7.125000 0.000000 0.000000 -13.471500 54.133600 -3.066700 5.212743 1.151906 -1.252679 78.071368 -4.497803 24.549549 -17.389427 25.726066 -4.299688 0.417620 -0.175945 4.514667 -16.066890 9.719213 -2.899200 7.125000 0.000000 0.000000 7.468400 -19.763400 4.541500 
15.625086 17.872068 -10.967822 2.434661 -51.083020 2.680297 -3.938595 1.178062 2.543187 -17.028446 -7.616985 -9.681854 0.211994 8.198927 24.538399 0.067621 1.368811 -7.569157 0.006300 -0.511500 -1.405600 0.966949 -1.145476 1.202676 20.524060 5.478124 -12.125991 -2.689765 -10.695712 32.531403 -0.225406 -2.032381 -10.534459 -0.001800 -0.273400 0.751100 -0.359053 -0.222665 4.475083 1.871097 -0.311908 0.222405 1.070317 -0.188980 -3.329581 -9.092344 -3.100780 -17.416131 4.486825 -2.651072 16.227514 3.305000 -1.761300 12.390900 -6.153240 -0.883818 -1.748004 -82.196716 5.761281 25.566348 16.997333 -24.380582 -4.534293 -0.998587 -2.321431 5.444008 16.386866 21.107275 7.032200 -7.125000 0.000000 0.000000 -12.643000 54.023100 -2.839000 5.207212 1.142152 -1.257171 77.953069 -4.775797 25.073038 -17.572327 25.965234 -4.389436 0.418737 -0.160575 4.137635 -16.019629 9.486489 -2.819100 7.125000 0.000000 0.000000 7.505900 -20.019000 4.521500 
15.619466 17.876082 -10.966818 2.400255 -51.145351 2.714881 -3.938826 1.178021 2.546452 -17.003753 -7.575382 -9.692272 0.212840 8.202505 24.547472 0.061466 1.423884 -7.632573 0.007800 -0.571100 -1.569200 0.966319 -1.147877 1.201955 20.564656 5.658723 -12.036786 -2.684395 -10.687637 32.507779 -0.214493 -2.070987 -10.508647 -0.004000 -0.410000 1.126600 -0.376641 -0.214604 4.505646 1.894559 -0.303773 0.203096 1.126353 -0.183444 -3.394507 -9.188926 -3.080607 -17.329763 4.544086 -2.603524 16.239812 3.353000 -1.745600 12.377900 -6.148423 -0.867127 -1.757147 -82.343430 5.988574 25.568093 17.032093 -24.430408 -4.548959 -1.071046 -2.307364 5.550466 17.262486 21.079362 7.430100 -7.125000 0.000000 0.000000 -11.672600 54.165100 -2.656900 5.206814 1.138142 -1.259149 77.959092 -4.961129 24.982596 -17.559101 25.950566 -4.385007 0.409142 -0.163304 4.234956 -15.763474 9.566150 -2.794800 7.125000 0.000000 0.000000 7.693700 -19.949000 4.648800 
15.615350 17.878491 -10.965714 2.326153 -51.174968 2.785503 -3.935985 1.177490 2.551272 -16.956912 -7.463076 -9.728615 0.209766 8.196210 24.525459 0.056623 1.441001 -7.591585 0.021100 -0.938700 -2.580200 0.965505 -1.147253 1.198480 20.626846 5.764659 -11.992902 -2.686651 -10.689540 32.517862 -0.218252 -2.050012 -10.496052 -0.009400 -0.627000 1.722900 -0.327191 -0.200657 4.494418 1.892337 -0.280799 0.208734 1.092399 -0.172801 -3.386967 -9.195583 -3.102760 -17.233156 4.579856 -2.642789 16.187595 3.362900 -1.758400 12.337500 -6.152036 -0.859481 -1.756886 -82.367891 6.038192 25.595320 17.013344 -24.405497 -4.538336 -1.079797 -2.307522 5.584297 17.347661 21.099272 7.476400 -7.125000 0.000000 0.000000 -11.588200 54.203700 -2.648300 5.208898 1.138202 -1.257849 78.072554 -5.006726 24.679919 -17.488219 25.863520 -4.353222 0.397862 -0.171705 4.412225 -15.478265 9.764963 -2.799200 7.125000 0.000000 0.000000 7.900700 -19.752900 4.811200 
15.612741 17.879194 -10.962603 2.281772 -51.205846 2.818731 -3.935839 1.180690 2.558238 -16.929070 -7.415730 -9.700761 0.200387 8.175840 24.465141 0.060419 1.406253 -7.541624 0.019600 -0.904800 -2.486800 0.963840 -1.147211 1.195752 20.656118 5.769175 -11.998233 -2.697864 -10.706570 32.573869 -0.224689 -2.039138 -10.557645 -0.008300 -0.586900 1.612600 -0.251610 -0.171770 4.472455 1.879372 -0.236183 0.211218 1.017980 -0.150667 -3.379147 -9.134779 -3.134857 -17.135627 4.526947 -2.716782 16.190744 3.319500 -1.792400 12.319600 -6.154753 -0.857696 -1.754530 -82.351358 6.098626 25.709711 16.980225 -24.362728 -4.524752 -1.034237 -2.321936 5.610712 16.765754 21.192570 7.233800 -7.125000 0.000000 0.000000 -12.272600 54.190100 -2.804100 5.209874 1.130080 -1.260139 78.156520 -5.129402 24.432178 -17.437815 25.804548 -4.330722 0.391143 -0.183413 4.560111 -15.337371 10.051751 -2.854600 7.125000 0.000000 0.000000 7.999900 -19.455400 4.926500 
15.612038 17.867350 -10.958789 2.196016 -51.241615 2.888481 -3.942953 1.198401 2.555690 -16.845868 -7.847157 -9.468536 0.188810 8.158605 24.416916 0.075529 1.361257 -7.675333 0.001300 0.232600 0.639100 0.963743 -1.149760 1.195484 20.697648 5.743703 -12.032980 -2.707666 -10.721843 32.621461 -0.241966 -1.973735 -10.590730 -0.010200 -0.652900 1.794100 -0.105242 -0.138923 4.407781 1.851363 -0.178982 0.233980 0.879498 -0.126983 -3.285661 -8.974132 -3.144425 -17.231275 4.384217 -2.776131 16.327848 3.228800 -1.823600 12.394300 -6.170952 -0.893095 -1.731970 -81.925383 5.659832 26.495599 16.747190 -24.051906 -4.405653 -1.009954 -2.350856 4.898873 16.533576 21.355150 7.184400 -7.125000 0.000000 0.000000 -12.584600 54.323300 -2.918300 5.214480 1.127988 -1.266778 78.205878 -5.256417 24.430764 -17.452207 25.829373 -4.337682 0.398358 -0.184333 4.504654 -15.540056 10.071394 -2.900200 7.125000 0.000000 0.000000 7.850900 -19.422500 4.838800 
